<svg xmlns="http://www.w3.org/2000/svg" xmlns:xlink="http://www.w3.org/1999/xlink" width="312.081" height="50" viewBox="0 0 312.081 50">
  <defs>
    <clipPath id="clip-path">
      <rect id="Rectangle_580" data-name="Rectangle 580" width="312.081" height="50" fill="none"/>
    </clipPath>
  </defs>
  <g id="Group_1185" data-name="Group 1185" clip-path="url(#clip-path)">
    <g id="DMR-logo">
      <path id="Path_5837" data-name="Path 5837" d="M35,0V3.361a21.639,21.639,0,1,1,0,43.277V50A25,25,0,0,0,35,0" transform="translate(-10)" fill="#14171a"/>
      <path id="Path_5838" data-name="Path 5838" d="M3.361,25A21.663,21.663,0,0,1,25,3.361V0a25,25,0,0,0,0,50V46.639A21.663,21.663,0,0,1,3.361,25" fill="#4dc5f2"/>
      <path id="Path_5839" data-name="Path 5839" d="M29.726,19.4V16.74H22.42V28.512l2.659,1.427V19.4h4.647Z" transform="translate(-6.406 -4.783)" fill="#4dc5f2"/>
      <path id="Path_5840" data-name="Path 5840" d="M39.03,19.4v2.657h2.663V19.4h0v0H39.055V16.74H36.377V19.4H39.03Z" transform="translate(-10.393 -4.783)" fill="#4dc5f2"/>
      <path id="Path_5841" data-name="Path 5841" d="M46.516,28.252V24.183H43.857v7.832l2.659-1.427Z" transform="translate(-12.531 -6.909)" fill="#4dc5f2"/>
      <path id="Path_5842" data-name="Path 5842" d="M46.516,16.74H43.855v2.654h2.661Z" transform="translate(-12.529 -4.783)" fill="#4dc5f2"/>
      <path id="Path_5843" data-name="Path 5843" d="M21.016,29.856,17.5,31.788V46.073H42.5V31.785l-3.511-1.911V32.21l-2.659,1.427-6.373,3.42-6.279-3.37-2.66-1.427Zm8.939,10.219,9.884-5.3v8.643H20.164V34.821Z" transform="translate(-5.002 -8.53)" fill="#14171a"/>
      <path id="Path_5844" data-name="Path 5844" d="M106.268,37.9a8.772,8.772,0,0,1,0-17.544A6.837,6.837,0,0,1,111.64,22.8V13.824h3.366v15.3a8.743,8.743,0,0,1-8.738,8.772m-5.44-8.772a5.441,5.441,0,1,0,5.44-5.542,5.394,5.394,0,0,0-5.44,5.542" transform="translate(-27.855 -3.949)" fill="#4dc5f2"/>
      <path id="Path_5845" data-name="Path 5845" d="M125.817,16.388a2.023,2.023,0,1,1,2.04,2.04,2,2,0,0,1-2.04-2.04m.374,4.386h3.332v17h-3.332Z" transform="translate(-35.947 -4.1)" fill="#14171a"/>
      <path id="Path_5846" data-name="Path 5846" d="M134.846,41.765h4.012a4.993,4.993,0,0,0,4.012,2.04c2.924,0,5.372-1.9,5.372-4.76v-.782a7.488,7.488,0,0,1-5.372,2.244,8.772,8.772,0,1,1,8.772-8.772v6.528a8.761,8.761,0,0,1-16.8,3.5m13.464-10.03a5.366,5.366,0,0,0-5.406-5.542,5.544,5.544,0,1,0,5.406,5.542" transform="translate(-38.314 -6.561)" fill="#14171a"/>
      <path id="Path_5847" data-name="Path 5847" d="M161.516,16.388a2.023,2.023,0,1,1,2.04,2.04,2,2,0,0,1-2.04-2.04m.374,4.386h3.332v17H161.89Z" transform="translate(-46.148 -4.1)" fill="#14171a"/>
      <path id="Path_5848" data-name="Path 5848" d="M174.266,24.14v5.712c0,3.23,1.258,4.726,3.672,4.93v3.23c-4.08-.17-6.97-2.652-7-8.126V24.14h-2.516V20.91h2.516V14.824h3.332V20.91h3.672v3.23Z" transform="translate(-48.119 -4.235)" fill="#14171a"/>
      <path id="Path_5849" data-name="Path 5849" d="M182.936,31.735a8.755,8.755,0,1,1,17.51,0v8.5h-3.332V37.549a6.072,6.072,0,0,1-5.406,2.958,8.771,8.771,0,0,1-8.772-8.772m14.212,0a5.366,5.366,0,0,0-5.406-5.542,5.544,5.544,0,1,0,5.406,5.542" transform="translate(-52.268 -6.561)" fill="#14171a"/>
      <path id="Path_5850" data-name="Path 5850" d="M261.262,31.3v8.942H257.93V31.3c0-3.468-1.462-5.1-4.046-5.1-2.551,0-4.046,1.632-4.046,5.1v8.942h-3.332V31.3c0-3.468-1.462-5.1-4.046-5.1-2.55,0-4.046,1.632-4.046,5.1v8.942h-3.332V31.3c0-5.712,3.129-8.33,7.379-8.33a6.118,6.118,0,0,1,5.712,3.162,6.116,6.116,0,0,1,5.712-3.162c4.25,0,7.378,2.618,7.378,8.33" transform="translate(-67.166 -6.562)" fill="#4dc5f2"/>
      <path id="Path_5851" data-name="Path 5851" d="M274.351,31.737a8.755,8.755,0,1,1,17.51,0v8.5h-3.332V37.551a6.072,6.072,0,0,1-5.406,2.958,8.772,8.772,0,0,1-8.772-8.772m14.212,0a5.366,5.366,0,0,0-5.406-5.542,5.544,5.544,0,1,0,5.406,5.542" transform="translate(-78.387 -6.562)" fill="#14171a"/>
      <path id="Path_5852" data-name="Path 5852" d="M302.2,16.389a2.023,2.023,0,1,1,2.04,2.04,2,2,0,0,1-2.04-2.04m.374,4.386H305.9v17h-3.332Z" transform="translate(-86.342 -4.1)" fill="#14171a"/>
      <path id="Path_5853" data-name="Path 5853" d="M323.3,31.441c0-5.644,3.026-8.194,7.14-8.194h.34v3.23h-.34c-2.38,0-3.808,1.53-3.808,4.964v8.874H323.3Z" transform="translate(-92.371 -6.642)" fill="#14171a"/>
      <path id="Path_5854" data-name="Path 5854" d="M352.5,31.734a8.772,8.772,0,1,1-8.772-8.772,8.75,8.75,0,0,1,8.772,8.772m-14.212,0a5.443,5.443,0,0,0,5.474,5.542,5.387,5.387,0,0,0,5.406-5.542,5.366,5.366,0,0,0-5.406-5.542,5.422,5.422,0,0,0-5.474,5.542" transform="translate(-95.703 -6.561)" fill="#14171a"/>
      <path id="Path_5855" data-name="Path 5855" d="M379.443,31.734a8.772,8.772,0,1,1-8.772-8.772,8.75,8.75,0,0,1,8.772,8.772m-14.212,0a5.443,5.443,0,0,0,5.474,5.542,5.387,5.387,0,0,0,5.406-5.542,5.367,5.367,0,0,0-5.406-5.542,5.422,5.422,0,0,0-5.474,5.542" transform="translate(-103.4 -6.561)" fill="#14171a"/>
      <path id="Path_5856" data-name="Path 5856" d="M415.259,31.292v8.942h-3.332V31.292c0-3.468-1.462-5.1-4.046-5.1-2.551,0-4.046,1.632-4.046,5.1v8.942H400.5V31.292c0-3.468-1.462-5.1-4.046-5.1-2.55,0-4.046,1.632-4.046,5.1v8.942h-3.332V31.292c0-5.712,3.128-8.33,7.378-8.33a6.118,6.118,0,0,1,5.712,3.162,6.116,6.116,0,0,1,5.712-3.162c4.25,0,7.378,2.618,7.378,8.33" transform="translate(-111.166 -6.561)" fill="#14171a"/>
      <path id="Path_5857" data-name="Path 5857" d="M214.114,33.175a1.49,1.49,0,0,0,.271.954.92.92,0,0,0,.759.336h1.57v3.169h-1.961a3.705,3.705,0,0,1-2.934-1.176,4.858,4.858,0,0,1-1.039-3.317V13.863h3.334Z" transform="translate(-60.223 -3.961)" fill="#14171a"/>
      <path id="Path_5858" data-name="Path 5858" d="M314.995,33.175a1.494,1.494,0,0,0,.27.954.922.922,0,0,0,.76.336h1.57v3.169h-1.961a3.7,3.7,0,0,1-2.934-1.176,4.858,4.858,0,0,1-1.039-3.317V13.863h3.334Z" transform="translate(-89.047 -3.961)" fill="#14171a"/>
      <path id="Path_5859" data-name="Path 5859" d="M426.212,19.788h-1.234V19h3.368v.792h-1.228V23.22h-.906Z" transform="translate(-121.422 -5.428)" fill="#14171a"/>
      <path id="Path_5860" data-name="Path 5860" d="M434.176,20.181l-1.191,3.04h-.391l-1.191-3.04v3.04h-.9V19h1.261l1.026,2.634L433.815,19h1.266v4.224h-.906Z" transform="translate(-123 -5.428)" fill="#14171a"/>
    </g>
  </g>
</svg>
