<svg xmlns="http://www.w3.org/2000/svg" xmlns:xlink="http://www.w3.org/1999/xlink" width="177.593" height="50" viewBox="0 0 177.593 50">
  <defs>
    <clipPath id="clip-path">
      <rect id="Rectangle_579" data-name="Rectangle 579" width="177.593" height="50" fill="none"/>
    </clipPath>
  </defs>
  <g id="Group_1183" data-name="Group 1183" clip-path="url(#clip-path)">
    <g id="DrySign-logo">
      <path id="Path_5825" data-name="Path 5825" d="M106.819,37.765a8.818,8.818,0,1,1,0-17.636,6.869,6.869,0,0,1,5.4,2.46V13.567H115.6V28.948a8.788,8.788,0,0,1-8.76,8.817h-.023m-5.468-8.815a5.4,5.4,0,1,0,0-.2c0,.067,0,.133,0,.2Z" transform="translate(-28.516 -3.947)" fill="#4dc5f2"/>
      <path id="Path_5826" data-name="Path 5826" d="M125.716,31.349c0-5.673,3.042-8.237,7.177-8.237h.342v3.247h-.342c-2.392,0-3.828,1.538-3.828,4.99v8.92h-3.349Z" transform="translate(-36.58 -6.725)" fill="#14171a"/>
      <path id="Path_5827" data-name="Path 5827" d="M139.451,41.835h3.759a3.89,3.89,0,0,0,3.52,2.051,3.848,3.848,0,0,0,4.136-4.033V38.93a5.636,5.636,0,0,1-4.136,1.641c-4.375,0-7.519-2.633-7.519-8.374V23.208h3.349V32.2c0,3.487,1.5,5.128,4.169,5.128,2.632,0,4.169-1.609,4.169-4.922V23.208h3.35V39.443a7.393,7.393,0,0,1-7.52,7.689,7.611,7.611,0,0,1-7.279-5.3" transform="translate(-40.506 -6.753)" fill="#14171a"/>
      <path id="Path_5828" data-name="Path 5828" d="M162.83,35.059h3.213c0,1.47,1.538,2.392,3.555,2.392,2.119,0,3.281-.922,3.281-2.256-.034-3.861-9.775-.922-9.775-7.553,0-2.871,2.8-4.819,6.322-4.819s6.254,1.846,6.254,5.126h-3.213c0-1.333-1.436-2.153-3.111-2.153-1.64,0-2.9.82-2.9,2.085,0,3.418,9.673.786,9.775,7.382.033,3.486-2.872,5.2-6.7,5.2-3.519,0-6.7-1.917-6.7-5.4" transform="translate(-47.379 -6.641)" fill="#14171a"/>
      <path id="Path_5829" data-name="Path 5829" d="M184.134,16.162a2.014,2.014,0,1,1,0,.073c0-.024,0-.049,0-.073m.376,4.407h3.349V37.659H184.51Z" transform="translate(-53.578 -4.116)" fill="#14171a"/>
      <path id="Path_5830" data-name="Path 5830" d="M193.272,41.726h4.033a5.019,5.019,0,0,0,4.033,2.051c2.939,0,5.4-1.914,5.4-4.785v-.786a7.527,7.527,0,0,1-5.4,2.255,8.815,8.815,0,1,1,8.815-8.815v6.563a8.806,8.806,0,0,1-16.883,3.52Zm13.535-10.082a5.394,5.394,0,0,0-5.214-5.569c-.074,0-.147,0-.221,0a5.573,5.573,0,1,0,5.433,5.709c0-.046,0-.091,0-.138" transform="translate(-56.02 -6.644)" fill="#14171a"/>
      <path id="Path_5831" data-name="Path 5831" d="M235.322,40.186h-3.349V31.2c0-3.487-1.5-5.127-4.169-5.127s-4.169,1.64-4.169,5.127v8.989h-3.35V31.2c0-5.742,3.145-8.374,7.519-8.374s7.519,2.632,7.519,8.374Z" transform="translate(-64.096 -6.641)" fill="#14171a"/>
      <path id="Path_5832" data-name="Path 5832" d="M34.32,0,32.445,1.761l1.875,1.6a21.639,21.639,0,0,1,0,43.278l-1.251,1.747L34.32,50a25,25,0,0,0,0-50Z" transform="translate(-9.441)" fill="#14171a"/>
      <path id="Path_5833" data-name="Path 5833" d="M35.52,38.421l2.674-2.674L24.23,21.782a1.906,1.906,0,0,0-2.674,2.674Z" transform="translate(-6.156 -6.222)" fill="#14171a"/>
      <path id="Path_5834" data-name="Path 5834" d="M45.162,42.715l-2.674,2.674.879.369,3.593,1.507.132.055Z" transform="translate(-12.363 -12.429)" fill="#14171a"/>
      <path id="Path_5835" data-name="Path 5835" d="M25.414,39.461a24.789,24.789,0,0,0,8.535-4.1l-3.708-1.555C26.2,36.219,16.751,39.969,4.6,32.544A21.635,21.635,0,0,1,24.878,3.359V0a25,25,0,0,0,0,50V46.636A21.621,21.621,0,0,1,7.454,37.81,28.712,28.712,0,0,0,18.922,40.3a25.271,25.271,0,0,0,6.492-.84" fill="#4dc5f2"/>
      <path id="Path_5836" data-name="Path 5836" d="M245.637,18.508a2.657,2.657,0,1,0,2.656,2.657,2.657,2.657,0,0,0-2.656-2.657m0,4.852a2.2,2.2,0,1,1,2.2-2.2,2.2,2.2,0,0,1-2.2,2.2m.991-2.149a.846.846,0,0,0,.179-.545.836.836,0,0,0-.291-.665,1.135,1.135,0,0,0-.761-.25h-1.222V22.58h.592V21.573h.43l.623,1.007h.691l-.73-1.061a.9.9,0,0,0,.49-.308m-.937-.069h-.569V20.22h.569q.515,0,.515.461t-.515.461Z" transform="translate(-70.699 -5.386)" fill="#14171a"/>
    </g>
  </g>
</svg>
