<svg id="EHRS-logo" xmlns="http://www.w3.org/2000/svg" width="198.742" height="50" viewBox="0 0 198.742 50">
  <path id="Path_7313" data-name="Path 7313" d="M464.622,30.641a4.62,4.62,0,1,1,4.619-4.622A4.627,4.627,0,0,1,464.622,30.641Zm7.222-4.622a7.233,7.233,0,1,0-2.6,5.545v1.676h2.6v-6.7l-.021-.021C471.833,26.359,471.844,26.19,471.844,26.019Z" transform="translate(-338.706 -13.921)" fill="#14181b"/>
  <path id="Path_7314" data-name="Path 7314" d="M437.78,16.022V.27h-2.6V16.826c0,2.535,1.64,2.694,2.587,2.694h1.809v-2.6h-.9a.9.9,0,0,1-.9-.9Z" transform="translate(-322.252 -0.2)" fill="#14181b"/>
  <path id="Path_7315" data-name="Path 7315" d="M267.932,21.4a4.627,4.627,0,0,1,4.432,3.319H263.5A4.627,4.627,0,0,1,267.932,21.4Zm7.1,5.922a7.233,7.233,0,1,0-1.03,2.6h-3.607a4.607,4.607,0,0,1-6.895-2.6h11.532Z" transform="translate(-193.056 -13.921)" fill="#14181b"/>
  <path id="Path_7316" data-name="Path 7316" d="M378.242,21.4a4.627,4.627,0,0,1,4.432,3.319H373.81A4.627,4.627,0,0,1,378.242,21.4Zm7.1,5.922a7.415,7.415,0,0,0,.119-1.3,7.231,7.231,0,1,0-1.15,3.9h-3.607a4.61,4.61,0,0,1-6.9-2.6h11.535Z" transform="translate(-274.741 -13.921)" fill="#14181b"/>
  <path id="Path_7317" data-name="Path 7317" d="M347.143,21.4V18.8a7.231,7.231,0,0,0-6.783,4.744V28.5a7.235,7.235,0,0,0,6.783,4.744v-2.6a4.62,4.62,0,0,1,0-9.241Z" transform="translate(-252.037 -13.921)" fill="#4dc5f2"/>
  <path id="Path_7318" data-name="Path 7318" d="M320.89,30.641v2.6a7.221,7.221,0,1,0,0-14.441v2.6a4.62,4.62,0,0,1,0,9.241Z" transform="translate(-237.62 -13.921)" fill="#14181b"/>
  <path id="Path_7319" data-name="Path 7319" d="M375.71,125.694h2.631c0,1.2,1.261,1.959,2.912,1.959,1.736,0,2.688-.755,2.688-1.848-.029-3.166-8.008-.758-8.008-6.189,0-2.351,2.3-3.947,5.18-3.947s5.125,1.51,5.125,4.2h-2.631c0-1.092-1.176-1.765-2.548-1.765-1.344,0-2.38.672-2.38,1.71,0,2.8,7.922.644,8.008,6.046.026,2.857-2.354,4.256-5.488,4.256-2.886,0-5.488-1.567-5.488-4.422Z" transform="translate(-278.214 -85.654)" fill="#4dc5f2"/>
  <path id="Path_7320" data-name="Path 7320" d="M425.605,122.894a4.482,4.482,0,0,0,4.507,4.562,4.564,4.564,0,1,0-4.507-4.562Zm11.7,0a7.224,7.224,0,1,1-7.224-7.224A7.2,7.2,0,0,1,437.309,122.894Z" transform="translate(-313.129 -85.654)" fill="#14181b"/>
  <path id="Path_7321" data-name="Path 7321" d="M484.47,94.95h2.743v19.6H484.47Z" transform="translate(-358.751 -70.311)" fill="#14181b"/>
  <path id="Path_7322" data-name="Path 7322" d="M514.918,116.53v7.365c0,4.7-2.574,6.859-6.16,6.859s-6.158-2.154-6.158-6.859V116.53h2.743v7.365c0,2.854,1.233,4.2,3.415,4.2s3.418-1.344,3.418-4.2V116.53Z" transform="translate(-372.177 -86.291)" fill="#14181b"/>
  <path id="Path_7323" data-name="Path 7323" d="M559.854,104.891v4.7c0,2.66,1.038,3.892,3.026,4.059v2.66c-3.36-.138-5.74-2.182-5.769-6.69v-4.733H555.04v-2.66h2.071V97.22h2.743v5.011h3.026v2.66Z" transform="translate(-411.008 -71.992)" fill="#14181b"/>
  <path id="Path_7324" data-name="Path 7324" d="M590.626,101.431h2.745v14h-2.745Zm-.306-3.612A1.666,1.666,0,1,1,592,99.5,1.648,1.648,0,0,1,590.32,97.819Z" transform="translate(-437.133 -71.192)" fill="#14181b"/>
  <path id="Path_7325" data-name="Path 7325" d="M611.833,122.894a4.484,4.484,0,0,0,4.51,4.562,4.564,4.564,0,1,0-4.51-4.562Zm11.706,0a7.224,7.224,0,1,1-7.224-7.224A7.2,7.2,0,0,1,623.539,122.894Z" transform="translate(-451.033 -85.654)" fill="#14181b"/>
  <path id="Path_7326" data-name="Path 7326" d="M683.021,129.893h-2.746v-7.365c0-2.854-1.233-4.2-3.415-4.2s-3.418,1.344-3.418,4.2v7.365H670.7v-7.365c0-4.7,2.577-6.859,6.16-6.859s6.161,2.156,6.161,6.859Z" transform="translate(-496.655 -85.654)" fill="#14181b"/>
  <path id="Path_7327" data-name="Path 7327" d="M723.57,125.694H726.2c0,1.2,1.261,1.959,2.912,1.959,1.736,0,2.688-.755,2.688-1.848-.029-3.166-8.008-.758-8.008-6.189,0-2.351,2.3-3.947,5.18-3.947s5.125,1.51,5.125,4.2h-2.631c0-1.092-1.176-1.765-2.548-1.765-1.344,0-2.38.672-2.38,1.71,0,2.8,7.922.644,8.008,6.046.026,2.857-2.354,4.256-5.488,4.256-2.886,0-5.488-1.567-5.488-4.422Z" transform="translate(-535.805 -85.654)" fill="#14181b"/>
  <path id="Path_7328" data-name="Path 7328" d="M273.56,108.937v7.232h-2.7v-7.232c0-2.805-1.209-4.126-3.355-4.126s-3.355,1.321-3.355,4.072v7.287H261.46V96.92h2.694v6.737a3.958,3.958,0,0,1,3.355-1.456c3.521,0,6.051,2.118,6.051,6.737Z" transform="translate(-193.612 -71.769)" fill="#4dc5f2"/>
  <path id="Path_7329" data-name="Path 7329" d="M315.51,124.528c0-4.565,2.447-6.628,5.774-6.628h.275v2.613h-.275c-1.925,0-3.08,1.238-3.08,4.014v7.178H315.51Z" transform="translate(-233.636 -87.305)" fill="#14181b"/>
  <path id="Path_7330" data-name="Path 7330" d="M96.34,0V3.36a21.638,21.638,0,0,1,0,43.276V50a25,25,0,1,0,0-50Z" transform="translate(-71.34 0)" fill="#14181b"/>
  <path id="Path_7331" data-name="Path 7331" d="M3.36,25A21.664,21.664,0,0,1,25,3.36V0a25,25,0,1,0,0,50V46.637A21.662,21.662,0,0,1,3.36,25Z" transform="translate(0 0)" fill="#4dc5f2"/>
  <path id="Path_7332" data-name="Path 7332" d="M112.627,55.222A3.142,3.142,0,1,0,115.684,52,3.143,3.143,0,0,0,112.627,55.222Z" transform="translate(-83.399 -38.503)" fill="#14181b"/>
  <path id="Path_7333" data-name="Path 7333" d="M56.607,56.722A3.142,3.142,0,1,0,59.664,53.5,3.143,3.143,0,0,0,56.607,56.722Z" transform="translate(-41.917 -39.614)" fill="#4dc5f2"/>
  <path id="Path_7334" data-name="Path 7334" d="M108.428,85.3c.005-.2,0-.4,0-.6-.01-.387-.039-.768-.086-1.147a.009.009,0,0,0-.005,0,12.52,12.52,0,0,0-.493-2.421A12.287,12.287,0,0,0,96.06,82.287,17.907,17.907,0,0,1,98.8,84.55a8.933,8.933,0,0,1,3.968-1.048,8.835,8.835,0,0,1,2.2.215,9.053,9.053,0,0,1-3,8.143l-.008.005v.008a10.672,10.672,0,0,1-.586,4.334,12.321,12.321,0,0,0,7.056-10.883h0Z" transform="translate(-71.133 -59.34)" fill="#14181b"/>
  <path id="Path_7335" data-name="Path 7335" d="M67.07,92.894c0-.021,0-.125-.005-.179a12.311,12.311,0,0,0-3.026-7l-.127-.14a17.907,17.907,0,0,0-2.74-2.263l-.047-.029a12.3,12.3,0,0,0-11.732-.527,16.538,16.538,0,0,0-.376,2.491,10.378,10.378,0,0,0-.07,1.131A12.361,12.361,0,0,0,59.732,98.289a15.087,15.087,0,0,1-.911-3.61,9,9,0,0,1-6.513-8.395,9.253,9.253,0,0,1,.039-1.077,8.98,8.98,0,0,1,2.19-.33,8.553,8.553,0,0,1,2.073.27,9.1,9.1,0,0,1,3.213,1.477l.145.106a9,9,0,0,1,3.685,5.836,8,8,0,0,1,.1,1.048,8.91,8.91,0,0,1-1.22,4.751,10.3,10.3,0,0,0,3.9-1.116l.049-.023a10.672,10.672,0,0,0,.586-4.334Z" transform="translate(-36.244 -60.361)" fill="#4dc5f2"/>
</svg>
