<?xml version="1.0" encoding="UTF-8"?>
<svg id="Layer_2" data-name="Layer 2" xmlns="http://www.w3.org/2000/svg" viewBox="0 0 699.41 300">
  <defs>
    <style>
      .cls-1 {
        fill: #4dc5f2;
      }

      .cls-2 {
        fill: #18191b;
      }
    </style>
  </defs>
  <g id="Layer_1-2" data-name="Layer 1">
    <g>
      <g>
        <g>
          <path class="cls-1" d="M20.17,150c0-71.59,58.24-129.83,129.83-129.83V0C67.29,0,0,67.29,0,150s67.29,150,150,150v-20.17c-71.59,0-129.83-58.24-129.83-129.83Z"/>
          <path class="cls-1" d="M200.56,70.19c-18.37-18.35-52.56-32.14-88.42-10.63-17.42,10.45-29.6,28.1-33.41,48.41-3.91,20.84,1.25,42.32,14.14,58.94,3.5,4.51,7.58,8.01,11.53,11.39,5.14,4.41,10,8.58,13.38,14.68,1.78,3.22,5.11,5.03,8.54,5.03,1.6,0,3.22-.39,4.71-1.22,4.71-2.61,6.42-8.54,3.81-13.25-5.08-9.18-11.81-14.96-17.75-20.05-3.5-3-6.52-5.6-8.81-8.54-9.48-12.22-13.26-28.03-10.38-43.4,2.78-14.84,11.63-27.7,24.27-35.29,26.23-15.74,51.2-5.68,64.61,7.71,13.74,13.72,24.1,39.25,8.07,66.04-2.89,4.83-7.4,9.11-12.62,14.06-3.91,3.7-4.07,9.88-.36,13.78,3.7,3.91,9.88,4.07,13.78.36,5.74-5.44,11.68-11.08,15.94-18.2,21.79-36.43,7.68-71.17-11.03-89.85Z"/>
        </g>
        <g>
          <path class="cls-2" d="M150,0v20.17c71.59,0,129.83,58.24,129.83,129.83s-58.24,129.83-129.83,129.83v20.17c82.71,0,150-67.29,150-150S232.71,0,150,0Z"/>
          <path class="cls-2" d="M138.98,225.53l42.14-18.41c4.94-2.16,7.19-7.9,5.03-12.84-2.16-4.94-7.91-7.18-12.84-5.03l-42.14,18.41c-4.94,2.16-7.19,7.9-5.03,12.84,1.6,3.67,5.18,5.85,8.94,5.85,1.3,0,2.63-.26,3.9-.82Z"/>
          <path class="cls-2" d="M178.32,226.55c-2.16-4.93-7.91-7.18-12.84-5.03l-25.44,11.11c-4.94,2.15-7.19,7.9-5.03,12.84,1.6,3.66,5.18,5.85,8.94,5.85,1.3,0,2.63-.26,3.9-.82l25.44-11.11c4.94-2.15,7.19-7.9,5.03-12.84Z"/>
          <circle class="cls-2" cx="149.01" cy="119.78" r="19.34" transform="translate(-18.68 211.61) rotate(-67.5)"/>
        </g>
      </g>
      <g>
        <path class="cls-1" d="M492.99,115.73v-19.13c-22.3.03-42.22,13.96-49.9,34.9v36.44c7.67,20.94,27.6,34.87,49.9,34.9v-19.13c-18.77,0-33.99-15.21-33.99-33.98,0-18.77,15.21-33.99,33.98-33.99h0Z"/>
        <g>
          <path class="cls-2" d="M555.55,96.59c-29.81,0-52.58,24.43-52.58,53.61s23.39,53.2,53.2,53.2c20.91,0,39.54-12.01,48.44-29.81l-24.22-.21c-5.38,5.8-13.46,10.35-24.84,10.35-16.77,0-29.19-10.97-30.84-26.29h83.63c.41-2.69.62-5.8.62-9.31-1.04-32.08-26.7-51.54-53.41-51.54ZM524.7,140.89c3.73-14.08,15.32-24.63,31.46-24.63,14.9,0,27.32,10.56,31.05,24.63h-62.51Z"/>
          <path class="cls-2" d="M640.21,127.23c0-7.66,7.66-12.63,17.6-12.63s18.84,4.97,18.84,13.04h19.46c0-19.87-16.56-31.05-37.88-31.05s-38.3,11.8-38.3,29.19c0,40.16,59,22.36,59.2,45.75,0,8.07-7.04,13.66-19.87,13.66s-21.53-5.59-21.53-14.49h-19.46c0,21.11,19.25,32.71,40.57,32.71,23.18,0,40.78-10.35,40.57-31.46-.62-39.95-59.2-24.01-59.2-44.71Z"/>
          <path class="cls-2" d="M406.05,96.59s-.08,0-.12,0v19.13c18.77,0,33.99,15.22,33.99,33.99s-15.22,33.99-33.99,33.99v19.13c29.34.03,53.15-23.72,53.18-53.06s-23.72-53.15-53.06-53.18Z"/>
        </g>
      </g>
    </g>
  </g>
</svg>