<svg xmlns="http://www.w3.org/2000/svg" width="129.811" height="50" viewBox="0 0 129.811 50">
  <g id="XME-logo" transform="translate(10.656 11.921)">
    <path id="Path_7313" data-name="Path 7313" d="M4542.24,880.87v9.17h3.361v-8.951c0-2.827,1.063-5.115,4.019-5.115,2.932,0,4.055,2.1,4.055,5.042v9.024h3.361v-8.732a6.831,6.831,0,0,1,.869-3.807,3.255,3.255,0,0,1,1.238-1.1,4.431,4.431,0,0,1,4.491.393c1.05.818,1.476,2.578,1.476,4.186v9.06h3.361v-9.426a10.743,10.743,0,0,0-.534-3.229l-.415-1.01c-.06-.113-.106-.175-.171-.3a6.651,6.651,0,0,0-1.485-1.8c-.088-.075-.176-.133-.271-.2a8.075,8.075,0,0,0-6.55-1.086,6.565,6.565,0,0,0-1.546.647c-.113.063-.209.129-.315.2a5.93,5.93,0,0,0-1.39,1.35,3.135,3.135,0,0,0-.4.694c-.132-.089-.247-.389-.427-.632a6.31,6.31,0,0,0-5.527-2.51,7.568,7.568,0,0,0-3.789,1,6.232,6.232,0,0,0-1.086.813,7.021,7.021,0,0,0-1.7,2.614,10.969,10.969,0,0,0-.625,3.722Z" transform="translate(-4468.625 -868.449)" fill="#16171a" fill-rule="evenodd"/>
    <path id="Path_7314" data-name="Path 7314" d="M6064.35,876.2a5.216,5.216,0,0,1,3.9,1.8,4.772,4.772,0,0,1,.492.64,7.835,7.835,0,0,1,.719,1.583h-10.229a5.318,5.318,0,0,1,.673-1.592A5.191,5.191,0,0,1,6064.35,876.2Zm0,14.358a8.951,8.951,0,0,0,6.292-2.585,8.6,8.6,0,0,0,1.708-2.347l-.369-.027a1.037,1.037,0,0,1-.11,0c-.673-.035-2.2-.005-2.955-.005-.882,0-.395-.026-1.21.58-.116.086-.209.167-.339.246a5.845,5.845,0,0,1-.788.418,5.7,5.7,0,0,1-5.874-.85A4.894,4.894,0,0,1,6059.2,883H6072.2c.6,0,.727.083.773-.14a9.533,9.533,0,0,0-.188-3.4,9.067,9.067,0,0,0-.548-1.571,8.634,8.634,0,0,0-4.316-4.16,8.815,8.815,0,0,0-3.831-.772,8.433,8.433,0,0,0-4.874,1.629,8.255,8.255,0,0,0-1.164,1.029,8.988,8.988,0,0,0-2.259,4.28,8.825,8.825,0,0,0,1.606,7.243c.088.118.155.188.246.3a8.835,8.835,0,0,0,6.7,3.126Z" transform="translate(-5953.908 -868.675)" fill="#16171a" fill-rule="evenodd"/>
    <path id="Path_7315" data-name="Path 7315" d="M3640.34,876.089a5.615,5.615,0,0,1,2.192.548,5.5,5.5,0,0,1,1.6,1.142,5.58,5.58,0,0,1,1.147,6.17,5.462,5.462,0,0,1-1.853,2.312,5.127,5.127,0,0,1-.868.52,5.429,5.429,0,0,1-1.01.378,5.7,5.7,0,0,1-1.206.182v3.178a8.072,8.072,0,0,0,3.617-.767,8.694,8.694,0,0,0,2.03-1.258,1.981,1.981,0,0,0,.17-.159c.079-.074.1-.077.183-.146a12.092,12.092,0,0,0,1.159-1.326c.061-.062.007-.044.111-.072a6.846,6.846,0,0,0,1.2,1.4,6.386,6.386,0,0,0,.713.6,9.655,9.655,0,0,0,1.66.971,8.3,8.3,0,0,0,3.627.757v-3.179a5.511,5.511,0,0,1-2.605-.756c-.156-.093-.29-.17-.427-.267a4.745,4.745,0,0,1-.888-.793,5.045,5.045,0,0,1-.464-.559,5.558,5.558,0,0,1-1.023-3.032,5.407,5.407,0,0,1,.756-3.044,6.64,6.64,0,0,1,.88-1.166,6.333,6.333,0,0,1,1.595-1.109,5.86,5.86,0,0,1,2.177-.527V872.91a8.773,8.773,0,0,0-6.634,2.975,3.806,3.806,0,0,0-.563.752c-.138-.037-.368-.458-.612-.7-.2-.2-.358-.417-.639-.676-.079-.073-.105-.077-.183-.146s-.1-.1-.168-.16a8.626,8.626,0,0,0-5.668-2.04v3.178Z" transform="translate(-3583.457 -868.636)" fill="#4dc4f0" fill-rule="evenodd"/>
    <path id="Path_7316" data-name="Path 7316" d="M584.46,642.66v23.491h3.4V642.66c0-.084-.026-.11-.11-.11h-3.178c-.084,0-.11.025-.11.11Zm-10.12,10.12v5.7c0,.084.025.11.11.11h3.288V652.67H574.45c-.084,0-.11.025-.11.11Zm5.078,9.608h3.361V648.87h-3.361Z" transform="translate(-574.34 -642.55)" fill="#4dc5f1" fill-rule="evenodd"/>
    <path id="Path_7317" data-name="Path 7317" d="M1401.67,793.881h3.288c.084,0,.11-.025.11-.11v-5.7c0-.084-.025-.11-.11-.11h-3.288v5.918Zm-10.12,10.01c0,.084.025.11.11.11h3.178c.084,0,.11-.025.11-.11V780.4h-3.4Zm5.042-19.619v13.3c0,.084.025.11.11.11h3.288V784.163H1396.7c-.084,0-.11.025-.11.11Z" transform="translate(-1376.389 -777.842)" fill="#17181b" fill-rule="evenodd"/>
    <path id="Path_7318" data-name="Path 7318" d="M1347.5.01V3.37a21.638,21.638,0,0,1,0,43.276V50.01a25,25,0,1,0,0-50h0Z" transform="translate(-1333.156 -11.931)" fill="#14181b"/>
    <path id="Path_7319" data-name="Path 7319" d="M3.36,25.01A21.664,21.664,0,0,1,25,3.37V.01a25,25,0,0,0,0,50V46.647A21.662,21.662,0,0,1,3.36,25.01Z" transform="translate(-10.656 -11.931)" fill="#4dc5f2"/>
  </g>
</svg>
